# xmcd
#
# Track frame offsets:
#	150
#	16598
#	34345
#	55216
#	76494
#	94479
#	112733
#	132206
#	146967
#	163151
#	179840
#	199976
#	223776
#	240894
#	255465
#	275163
#
# Disc length: 3865 seconds
#
# Revision: 0
# Processed by: cddbd v1.5.2PL0 Copyright (c) Steve Scherf et al.
# Submitted via: EasyCDDAExtractor 15.3.0.1
#
DISCID=ed0f1710
DTITLE=Various Artist - NEW DISCO POLO AND DANCE 3
DYEAR=1900
DGENRE=disco polo
TTITLE0=adam chrola - riki tiki (disco mix)
TTITLE1=marcin toples siegienczuk - cialo do ciala
TTITLE2=junior - zakrecone lato
TTITLE3=redstar - monika
TTITLE4=impuls - jedno slowo
TTITLE5=etna - krzyk
TTITLE6=itex - ze mna tancz
TTITLE7=luxus - zakochani
TTITLE8=mejk - dotknij mnie
TTITLE9=mirek ciesnowski - zakochany klaun
TTITLE10=time - nie chce juz
TTITLE11=spike - w twoich dloniach
TTITLE12=wabank - dyskotekowy szal
TTITLE13=power dance - twe cialo
TTITLE14=nazir - oczaruj mnie
TTITLE15=adam chrola - riki tiki (polo mix)
EXTD=
EXTT0=
EXTT1=
EXTT2=
EXTT3=
EXTT4=
EXTT5=
EXTT6=
EXTT7=
EXTT8=
EXTT9=
EXTT10=
EXTT11=
EXTT12=
EXTT13=
EXTT14=
EXTT15=
PLAYORDER=
